<svg xmlns="http://www.w3.org/2000/svg" viewBox="0 0 208.69 255.9"><defs><style>.cls-1{fill:#030303;}.cls-2{fill:#6e685b;}.cls-3{fill:#ed8d75;}.cls-4{fill:#ef9f8b;}.cls-5{fill:#f7e2c4;}.cls-6{fill:#615c50;}.cls-7{fill:#7d766a;}.cls-8{fill:#6d675b;}.cls-9{fill:#e9d0a8;}.cls-10{fill:#605b4f;}.cls-11{fill:#dcd9d3;}.cls-12{fill:#e3b88b;}.cls-13{fill:#e5cca5;}.cls-14{fill:#dad6ce;}.cls-15{fill:#050404;}</style></defs><title>Zasób 2</title><g id="Warstwa_2" data-name="Warstwa 2"><g id="Warstwa_1-2" data-name="Warstwa 1"><path class="cls-1" d="M17.29,109.1c-3.07-1.27-6-2.39-8.88-3.68a13.74,13.74,0,1,1,10.72-25.3C22.06,81.27,25,82.43,28,83.5c2.8,1,2.81.94,3.37-2A288.79,288.79,0,0,1,43.35,36c3.43-9.4,7.41-18.53,13.84-26.34,3.53-4.3,7.6-8.06,13.28-9.14,9.08-1.74,17,1,23.54,7.3,2.51,2.42,4.62,5.24,6.93,7.86,2.92,3.3,4,3.29,6.88-.08,1.81-2.07,3.47-4.27,5.34-6.28C120,2,128.34-1.34,138.33.54c5.57,1.05,9.59,4.79,13.08,9,6.76,8.2,10.85,17.83,14.39,27.71a296.39,296.39,0,0,1,11.55,44,11.62,11.62,0,0,1,.37,1.71c0,1.3.49,1.5,1.69,1,3.3-1.34,6.67-2.51,10-3.83,8.82-3.52,17.78,1.6,19.17,11a13.72,13.72,0,0,1-8.09,14.15c-2.94,1.34-6,2.48-9.1,3.77a22.54,22.54,0,0,1,7.1,13.66,21.55,21.55,0,0,1-15.65,23.6,3.52,3.52,0,0,0-3,3c-5.16,21-14.23,40-28.06,56.65-1.07,1.29-.84,1.92.15,3a60.72,60.72,0,0,1,15.42,31,13.51,13.51,0,0,1-13.47,15.82c-4.92.07-9.83,0-14.75,0q-41.83,0-83.69,0c-7.92,0-13.84-5.33-14.37-13-.21-3,.74-5.92,1.57-8.79a61.84,61.84,0,0,1,14.17-25.18c1.11-1.2,1-1.82,0-3-13.71-16.52-22.72-35.41-27.91-56.16a4.08,4.08,0,0,0-3.36-3.47C10.56,142,5,123.36,15.14,111.49,15.79,110.73,16.47,110,17.29,109.1Zm41.92,36.62.65.15a125.27,125.27,0,0,0,20,4,182.62,182.62,0,0,0,52.77-.55,142.64,142.64,0,0,0,37.69-11,2.71,2.71,0,0,0,1.95-2.27,79.94,79.94,0,0,0,.22-19.43c-.21-1.79-.75-1.86-2.32-1.48a284.61,284.61,0,0,1-69.31,7.5,321,321,0,0,1-44-3.68c-6.34-1.29-12.75-2.29-19-4-1.3-.35-1.48.21-1.63,1.32a74,74,0,0,0,.18,19.89,2.35,2.35,0,0,0,1.57,2,119.39,119.39,0,0,0,21.08,7.43Zm36.65-30.81c4.15.19,8.29.3,12.45.25a273.69,273.69,0,0,0,55.92-6.24c11.29-2.49,22.42-5.58,33-10.39,3.53-1.61,4.79-5,3.35-8.25s-4.88-4.52-8.38-3.08c-24.46,10.06-50.12,14.11-76.36,15.28-6.48.29-13,.43-19.45.24A314.37,314.37,0,0,1,64.85,100c-16.33-2.42-32.33-6.08-47.64-12.44a7.48,7.48,0,0,0-4.07-.93,6.26,6.26,0,0,0-5.51,5.33,6,6,0,0,0,3.58,6.5A122,122,0,0,0,29,104.92a237.52,237.52,0,0,0,42,8.41C79.23,114.27,87.51,115.19,95.86,114.91Zm44.4,92.47a12,12,0,0,0,.93-.81c15.92-16.95,25.85-37.08,31.55-59.44.11-.42.39-1-.28-1.35-.42.15-.89.31-1.35.5-19.78,8.36-40.5,12.12-61.89,12.69a196.21,196.21,0,0,1-45.6-4.24c-9.39-2.38-18.68-5.08-27.54-9.11a3.7,3.7,0,0,0,.18,2.66,137.76,137.76,0,0,0,13.21,33.5c11.13,20.05,26.44,35.91,47,46.47,4.54,2.34,9.29,2.95,13.94.8A96.28,96.28,0,0,0,140.26,207.38Zm-4.91-114a228.41,228.41,0,0,0,32.81-5.92c2-.48,2.54-1.29,2.15-3.25-3.25-16.39-7-32.65-13.07-48.27-3.13-8.09-6.69-16-12.48-22.6-3.94-4.5-8.63-6.78-14.83-5.43a22.26,22.26,0,0,0-12.58,8c-1.86,2.23-3.69,4.52-5.75,6.56-4.46,4.43-9.87,4.43-14.39.13a47.11,47.11,0,0,1-3.37-3.68c-2.38-2.78-4.5-5.84-7.64-7.83C78.52,6.2,70.64,5.68,64.19,13a48.66,48.66,0,0,0-8.48,13.44A54.57,54.57,0,0,0,51.8,35C45.58,50.84,41.76,67.33,38.42,84c-.4,2,.13,2.91,2.21,3.44A236.71,236.71,0,0,0,90,94.82C105.15,95.45,120.3,95.47,135.35,93.35Zm-68.1,124c0,10.09,0,19.66,0,29.23,0,1.43.48,1.87,1.88,1.86,6.16-.05,12.33-.07,18.49,0,1.65,0,1.91-.71,1.88-2.11-.06-3.83-.07-7.66,0-11.49a2.73,2.73,0,0,0-1.66-2.73A88.43,88.43,0,0,1,77,225C73.85,222.54,70.75,220.07,67.25,217.31Zm74.21-.27A119.91,119.91,0,0,1,120,232.6a1.71,1.71,0,0,0-.8,1.7c0,4.16,0,8.32,0,12.48,0,1.17.4,1.62,1.59,1.61,6.4,0,12.81,0,19.21,0,1.07,0,1.47-.41,1.47-1.47C141.45,237.19,141.46,227.47,141.46,217Zm7.6,1v25.61c0,5.24,0,5.24,5.3,4.73,3.54-.34,6.29-3.43,5.69-6.86A48.16,48.16,0,0,0,149.06,218ZM17.49,125a14.58,14.58,0,0,0,9.65,14c1.72.58,2.25.34,1.94-1.6a78.13,78.13,0,0,1-.27-22.13c.11-.86.85-2-.41-2.68a3.3,3.3,0,0,0-3.3.29A14.36,14.36,0,0,0,17.49,125Zm173.71.45c0-5.32-3.49-10.78-8.12-12.81-2.35-1-3.57-.24-3.26,2.21a79.24,79.24,0,0,1-.27,22.86c-.28,1.72.39,1.79,1.81,1.35A14.44,14.44,0,0,0,191.2,125.44ZM59.6,218.08a48.22,48.22,0,0,0-10.94,23.31,6.07,6.07,0,0,0,5.58,7c1.15.11,2.34-.07,3.49.06,1.6.2,1.91-.48,1.9-2-.07-7.16,0-14.31,0-21.47ZM104,248.39c2.22,0,4.13-.06,6,0,1.18.05,1.6-.33,1.57-1.54-.08-2.82-.08-5.65,0-8.47,0-1.39-.37-1.7-1.74-1.34a21.26,21.26,0,0,1-8.88.45c-3.92-.65-3.94-.58-3.92,3.58,0,2.32-.78,5.37.38,6.76C98.82,249.46,102,248.11,104,248.39Z"/><path class="cls-2" d="M55.71,26.41A48.66,48.66,0,0,1,64.19,13c6.45-7.29,14.33-6.77,22-1.92,3.14,2,5.26,5.05,7.64,7.83a47.11,47.11,0,0,0,3.37,3.68c4.52,4.3,9.93,4.3,14.39-.13,2.06-2,3.89-4.33,5.75-6.56a22.26,22.26,0,0,1,12.58-8c6.2-1.35,10.89.93,14.83,5.43,5.79,6.62,9.35,14.51,12.48,22.6,6.06,15.62,9.82,31.88,13.07,48.27.39,2-.2,2.77-2.15,3.25a228.41,228.41,0,0,1-32.81,5.92c-.32-1.28-1.53-1.14-2.4-1.42a179.88,179.88,0,0,1-23.69-9.07C94,75.46,79.71,66.71,68.65,53.5c-5.21-6.23-9.46-12.94-11.41-21C56.75,30.49,57,28.26,55.71,26.41Z"/><path class="cls-3" d="M140.26,207.38a96.28,96.28,0,0,1-29.87,21.67c-4.65,2.15-9.4,1.54-13.94-.8-20.54-10.56-35.85-26.42-47-46.47a137.76,137.76,0,0,1-13.21-33.5,3.7,3.7,0,0,1-.18-2.66c8.86,4,18.15,6.73,27.54,9.11a.81.81,0,0,0-.35,1.05c2.14,8.18,7.21,13.51,15.44,15.59,9.86,2.48,20,2.93,30.05,3,9,.08,18,0,27,0a22,22,0,0,1,8,1.55c1.8.72,2.05,2,.8,3.5a9,9,0,0,1-4.22,2.52c-9.65,3.2-19.79,3.63-29.7,5.4-4.8.85-9.69,1.32-14.21,3.27-3.32,1.43-3.46,3.53-.4,5.5a47.32,47.32,0,0,0,6.16,3.21C114.29,204.83,127.05,207.13,140.26,207.38Z"/><path class="cls-4" d="M140.26,207.38c-13.21-.25-26-2.55-38.1-8A47.32,47.32,0,0,1,96,196.16c-3.06-2-2.92-4.07.4-5.5,4.52-1.95,9.41-2.42,14.21-3.27,9.91-1.77,20-2.2,29.7-5.4a9,9,0,0,0,4.22-2.52c1.25-1.47,1-2.78-.8-3.5a22,22,0,0,0-8-1.55c-9,0-18,.05-27,0-10.1-.09-20.19-.54-30.05-3-8.23-2.08-13.3-7.41-15.44-15.59a.81.81,0,0,1,.35-1.05,196.21,196.21,0,0,0,45.6,4.24c21.39-.57,42.11-4.33,61.89-12.69.46-.19.93-.35,1.35-.5.67.39.39.93.28,1.35-5.7,22.36-15.63,42.49-31.55,59.44A12,12,0,0,1,140.26,207.38Z"/><path class="cls-5" d="M56.88,119a321,321,0,0,0,44,3.68,284.61,284.61,0,0,0,69.31-7.5c1.57-.38,2.11-.31,2.32,1.48a79.94,79.94,0,0,1-.22,19.43,2.71,2.71,0,0,1-1.95,2.27,142.64,142.64,0,0,1-37.69,11,182.62,182.62,0,0,1-52.77.55,125.27,125.27,0,0,1-20-4,.43.43,0,0,0-.65-.15l-.13,0a2.74,2.74,0,0,0,.14-1.93C56.84,135.66,56.69,127.37,56.88,119Zm20,16.89a12.09,12.09,0,0,0,1.47.35,3.73,3.73,0,0,0,4.35-2.85,3.47,3.47,0,0,0-2.45-4.34c-4.13-1.25-8.32-2.33-12.53-3.32a3.35,3.35,0,0,0-4.23,2.56c-.59,2,.15,4.13,2.16,4.39,4,.52,4.07,2.95,3.75,5.91a8.37,8.37,0,0,0,0,2A3.62,3.62,0,0,0,73.33,144a3.47,3.47,0,0,0,3.5-3.52C77,139.07,76.86,137.65,76.86,135.93Zm55,.09v2.11c0,.75,0,1.5,0,2.25A3.63,3.63,0,0,0,135.5,144a3.67,3.67,0,0,0,3.79-3.52,9.46,9.46,0,0,0,0-2c-.29-2.88-.27-5.27,3.66-5.73,2-.23,2.81-2.32,2.28-4.34a3.34,3.34,0,0,0-4.17-2.66c-4.29,1-8.56,2.1-12.76,3.4a3.34,3.34,0,0,0-2.32,4.18,3.61,3.61,0,0,0,4,3A15,15,0,0,0,131.82,136Z"/><path class="cls-6" d="M55.71,26.41c1.24,1.85,1,4.08,1.53,6.12,1.95,8,6.2,14.74,11.41,21,11.06,13.21,25.37,22,40.61,29.36A179.88,179.88,0,0,0,133,91.93c.87.28,2.08.14,2.4,1.42-15,2.12-30.2,2.1-45.32,1.47a236.71,236.71,0,0,1-49.4-7.43C38.55,86.86,38,86,38.42,84,41.76,67.33,45.58,50.84,51.8,35A54.57,54.57,0,0,1,55.71,26.41Z"/><path class="cls-7" d="M96.38,102.72c6.49.19,13,0,19.45-.24,26.24-1.17,51.9-5.22,76.36-15.28,3.5-1.44,7-.11,8.38,3.08s.18,6.64-3.35,8.25c-10.57,4.81-21.7,7.9-33,10.39a273.69,273.69,0,0,1-55.92,6.24c-4.16,0-8.3-.06-12.45-.25C94,110.76,93.5,106.67,96.38,102.72Z"/><path class="cls-8" d="M96.38,102.72c-2.88,4-2.41,8-.52,12.19-8.35.28-16.63-.64-24.88-1.58a237.52,237.52,0,0,1-42-8.41,122,122,0,0,1-17.78-6.51,6,6,0,0,1-3.58-6.5,6.26,6.26,0,0,1,5.51-5.33,7.48,7.48,0,0,1,4.07.93c15.31,6.36,31.31,10,47.64,12.44A314.37,314.37,0,0,0,96.38,102.72Z"/><path class="cls-9" d="M56.88,119c-.19,8.33,0,16.62,2.34,24.71a2.74,2.74,0,0,1-.14,1.93A119.39,119.39,0,0,1,38,138.25a2.35,2.35,0,0,1-1.57-2,74,74,0,0,1-.18-19.89c.15-1.11.33-1.67,1.63-1.32C44.13,116.75,50.54,117.75,56.88,119Z"/><path class="cls-10" d="M67.25,217.31c3.5,2.76,6.6,5.23,9.73,7.66a88.43,88.43,0,0,0,10.85,7.11,2.73,2.73,0,0,1,1.66,2.73c-.08,3.83-.07,7.66,0,11.49,0,1.4-.23,2.13-1.88,2.11-6.16-.08-12.33-.06-18.49,0-1.4,0-1.89-.43-1.88-1.86C67.27,237,67.25,227.4,67.25,217.31Z"/><path class="cls-8" d="M141.46,217c0,10.43,0,20.15,0,29.87,0,1.06-.4,1.48-1.47,1.47-6.4,0-12.81,0-19.21,0-1.19,0-1.61-.44-1.59-1.61,0-4.16,0-8.32,0-12.48a1.71,1.71,0,0,1,.8-1.7A119.91,119.91,0,0,0,141.46,217Z"/><path class="cls-11" d="M149.06,218a48.16,48.16,0,0,1,11,23.48c.6,3.43-2.15,6.52-5.69,6.86-5.3.51-5.3.51-5.3-4.73V218Z"/><path class="cls-12" d="M17.49,125a14.36,14.36,0,0,1,7.61-12.11,3.3,3.3,0,0,1,3.3-.29c1.26.65.52,1.82.41,2.68a78.13,78.13,0,0,0,.27,22.13c.31,1.94-.22,2.18-1.94,1.6A14.58,14.58,0,0,1,17.49,125Z"/><path class="cls-13" d="M191.2,125.44a14.44,14.44,0,0,1-9.84,13.61c-1.42.44-2.09.37-1.81-1.35a79.24,79.24,0,0,0,.27-22.86c-.31-2.45.91-3.24,3.26-2.21C187.71,114.66,191.17,120.12,191.2,125.44Z"/><path class="cls-14" d="M59.6,218.08V225c0,7.16,0,14.31,0,21.47,0,1.47-.3,2.15-1.9,2-1.15-.13-2.34,0-3.49-.06a6.07,6.07,0,0,1-5.58-7A48.22,48.22,0,0,1,59.6,218.08Z"/><path class="cls-11" d="M104,248.39c-2-.28-5.21,1.07-6.55-.54-1.16-1.39-.37-4.44-.38-6.76,0-4.16,0-4.23,3.92-3.58a21.26,21.26,0,0,0,8.88-.45c1.37-.36,1.77-.05,1.74,1.34-.08,2.82-.08,5.65,0,8.47,0,1.21-.39,1.59-1.57,1.54C108.16,248.33,106.25,248.39,104,248.39Z"/><path class="cls-9" d="M59.21,145.72a.43.43,0,0,1,.65.15Z"/><path class="cls-15" d="M76.86,135.93c0,1.72.09,3.14,0,4.54a3.47,3.47,0,0,1-3.5,3.52,3.62,3.62,0,0,1-3.92-3.36,8.37,8.37,0,0,1,0-2c.32-3,.23-5.39-3.75-5.91-2-.26-2.75-2.39-2.16-4.39a3.35,3.35,0,0,1,4.23-2.56c4.21,1,8.4,2.07,12.53,3.32a3.47,3.47,0,0,1,2.45,4.34,3.73,3.73,0,0,1-4.35,2.85A12.09,12.09,0,0,1,76.86,135.93Z"/><path class="cls-15" d="M131.82,136a15,15,0,0,1-1.81.31,3.61,3.61,0,0,1-4-3,3.34,3.34,0,0,1,2.32-4.18c4.2-1.3,8.47-2.41,12.76-3.4a3.34,3.34,0,0,1,4.17,2.66c.53,2-.27,4.11-2.28,4.34-3.93.46-3.95,2.85-3.66,5.73a9.46,9.46,0,0,1,0,2A3.67,3.67,0,0,1,135.5,144a3.63,3.63,0,0,1-3.66-3.62c-.06-.75,0-1.5,0-2.25Z"/></g></g></svg>