<svg viewBox="0 0 233.48 256.04" xmlns="http://www.w3.org/2000/svg"><g transform="translate(-180.81 -292.41)"><path d="m225.1 381.92q3.84-21.59 7.68-43.17c1.89-10.54 3.74-21.1 5.76-31.62 1.74-9.08 8.52-14.61 17.77-14.68 6.57-.06 13.15 0 19.72 0 7.52 0 13 3.42 16.46 10.1 1.82 3.49 3.14 7.24 5.52 10.44v78.44c-24.72-.12-49.01-2.91-72.91-9.51z" fill="#6e685b"/><path d="m298 391.42v-78.42c1.67-3.42 3.29-6.87 5-10.25 3.49-6.82 9-10.41 16.77-10.31 6.57.08 13.14 0 19.71 0 9.35 0 16.32 6.1 18 15.34q6.36 35.81 12.88 71.59c.11.65.11 1.32.16 2-.85 1.18-2.23.92-3.4 1.24a252.63 252.63 0 0 1 -40.65 7.19c-9.45 1-19 1.12-28.49 1.63z" fill="#615c50"/><path d="m298 548.27c-2.51.5-4.3-.48-6.14-2.25-18-17.35-33.9-36.38-46.74-57.86-8.65-14.5-15.33-29.83-18.38-46.55a72.45 72.45 0 0 1 -1.28-13.61c0-1.19.32-1.61 1.53-1.6 4.16.05 8.32 0 12.48 0a2.3 2.3 0 0 1 1.6.52c5.55 4.6 12.32 6.32 19.1 8 12.43 3 25.12 3.75 37.84 4.07z" fill="#ef9f8b"/><path d="m298 548.27v-109.27c10.87-.57 21.77-.87 32.49-3 6.58-1.33 13.1-2.88 19.18-5.85.45-.22 1-.32 1.32-.66 3.41-3.82 7.94-3 12.26-3h2.5c5.18 0 5 0 4.56 5.16-1.76 21.45-10 40.59-21 58.71-12.52 20.61-28 38.86-45.23 55.62-1.7 1.58-3.44 3.02-6.08 2.29z" fill="#ed8d75"/><path d="m225.1 381.92c23.85 6.6 48.19 9.39 72.88 9.5q0 14.94 0 29.89a269.88 269.88 0 0 1 -32.9-1.6 312.49 312.49 0 0 1 -46.84-8.37 286.05 286.05 0 0 1 -27.62-8.52 14.92 14.92 0 0 1 9.16-28.37c7.83 2.21 15.45 5.14 23.36 7.13.65.16 1.31.23 1.96.34z" fill="#7d766a"/><path d="m298 421.31q0-14.94 0-29.89c9.5-.51 19-.66 28.49-1.63a252.63 252.63 0 0 0 40.65-7.19c1.17-.32 2.55-.06 3.4-1.24.92.47 1.76 0 2.63-.21 7.55-1.9 14.81-4.76 22.31-6.82a14.79 14.79 0 0 1 17.89 9.25c2.69 7.68-.55 15.83-8 18.83a242.39 242.39 0 0 1 -32.43 9.95 298.09 298.09 0 0 1 -37.36 6.82c-12.5 1.44-25 2.53-37.58 2.13z" fill="#6d675b"/></g></svg>