<svg width="0" height="0" class="hidden">
  <symbol xmlns="http://www.w3.org/2000/svg" viewBox="0 0 51 51" id="chevron">
    <circle cx="25.5" cy="25.5" fill="#393939" r="25.5"></circle>
    <g fill="#fff">
      <rect height="15.24" rx=".8" transform="matrix(.78 -.63 .63 .78 -21.26 15.39)" width="1.6" x="24.4" y="27.9"></rect>
      <rect height="15.24" rx=".8" transform="matrix(.79547348 .6059884 -.6059884 .79547348 24 -21.9)" width="1.6" x="33.3" y="27.9"></rect>
    </g>
  </symbol>
  <symbol enable-background="new 0 0 501.656 501.656" xmlns="http://www.w3.org/2000/svg" viewBox="0 0 501.656 501.656" id="clock">
    <path d="m342.512 328h-200c-2.122 0-4.156.844-5.656 2.344l-96 96 11.312 11.312 93.656-93.656h187.888c-1.664 9.496-6.888 24-23.2 24h-88v16h88c31.64 0 40-31.4 40-48 0-4.418-3.582-8-8-8z"></path>
    <path d="m444.168 274.344c-3.124-3.123-8.188-3.123-11.312 0l-72 72 11.312 11.312 65.712-65.712c10.828 14.37 8.629 34.68-5.024 46.4l-93.656 93.656h-164.688c-2.122 0-4.156.844-5.656 2.344l-56 56 11.312 11.312 53.656-53.656h164.688c2.122 0 4.156-.844 5.656-2.344l96-96c29.792-29.792 13.024-62.288 0-75.312z"></path>
    <path d="m262.512 0c-83.947 0-152 68.053-152 152s68.053 152 152 152c83.909-.093 151.907-68.091 152-152 0-83.947-68.053-152-152-152zm0 288c-75.111 0-136-60.889-136-136s60.89-136 136-136c75.076.084 135.916 60.924 136 136 0 75.111-60.889 136-136 136z"></path>
    <path d="m262.512 40c-61.856 0-112 50.144-112 112s50.145 112 112 112c61.828-.066 111.934-50.172 112-112 0-61.856-50.144-112-112-112zm8 207.666v-23.666h-16v23.666c-46.637-3.848-83.817-41.028-87.666-87.666h23.666v-16h-23.666c3.849-46.637 41.029-83.817 87.666-87.666v23.666h16v-23.657c46.612 3.893 83.764 41.045 87.657 87.657h-23.657v16h23.666c-3.848 46.637-41.028 83.817-87.666 87.666z"></path>
    <path d="m284.18 162.33c1.494-3.129 2.333-6.631 2.333-10.33 0-10.449-6.68-19.334-16-22.629v-33.371h-16v33.371c-9.32 3.295-16 12.18-16 22.629-.001 13.255 10.745 24 23.999 24 3.711 0 7.225-.843 10.362-2.347l23.977 23.977 11.314-11.314zm-21.668-2.33c-4.418 0-8-3.582-8-8s3.582-8 8-8 8 3.582 8 8-3.582 8-8 8z"></path>
  </symbol>
  <symbol xmlns="http://www.w3.org/2000/svg" viewBox="0 0 64 64" id="computer">
    <path d="m13.293 14.293-3 3a1 1 0 0 0 0 1.414l3 3 1.414-1.414-2.293-2.293 2.293-2.293z"></path>
    <path d="m14.228 17h8.544v2h-8.544z" transform="matrix(.351 -.936 .936 .351 -4.85 29.002)"></path>
    <path d="m23.707 21.707 3-3a1 1 0 0 0 0-1.414l-3-3-1.414 1.414 2.293 2.293-2.293 2.293z"></path>
    <path d="m10 26h4v2h-4z"></path>
    <path d="m16 26h10v2h-10z"></path>
    <path d="m12 30h4v2h-4z"></path>
    <path d="m18 30h10v2h-10z"></path>
    <path d="m30 30h2v2h-2z"></path>
    <path d="m12 34h4v2h-4z"></path>
    <path d="m18 34h10v2h-10z"></path>
    <path d="m30 34h2v2h-2z"></path>
    <path d="m61.142 13.01-2.682-.383a10.86 10.86 0 0 0 -.679-1.639l1.625-2.166a1 1 0 0 0 -.093-1.307l-2.828-2.828a1 1 0 0 0 -1.306-.093l-2.167 1.624a10.9 10.9 0 0 0 -1.639-.678l-.383-2.682a1 1 0 0 0 -.99-.858h-4a1 1 0 0 0 -.99.858l-.383 2.682a10.855 10.855 0 0 0 -1.639.678l-2.167-1.624a1 1 0 0 0 -1.306.093l-2.828 2.828a1 1 0 0 0 -.093 1.307l1.625 2.166a10.86 10.86 0 0 0 -.679 1.639l-2.682.383a1 1 0 0 0 -.858.99v4a1 1 0 0 0 .858.99l2.682.383a10.86 10.86 0 0 0 .679 1.639l-1.625 2.166a1 1 0 0 0 .093 1.307l2.828 2.828a1 1 0 0 0 1.306.093l2.167-1.624a10.855 10.855 0 0 0 1.639.678l.383 2.682a1 1 0 0 0 .99.858h4a1 1 0 0 0 .99-.858l.383-2.682a10.9 10.9 0 0 0 1.639-.678l2.167 1.624a1 1 0 0 0 1.306-.093l2.828-2.828a1 1 0 0 0 .093-1.307l-1.625-2.166a10.86 10.86 0 0 0 .679-1.639l2.682-.383a1 1 0 0 0 .858-.99v-4a1 1 0 0 0 -.858-.99zm-1.142 4.123-2.463.352a1 1 0 0 0 -.827.742 8.923 8.923 0 0 1 -.977 2.357 1 1 0 0 0 .061 1.111l1.492 1.99-1.6 1.6-1.991-1.492a1 1 0 0 0 -1.11-.06 8.859 8.859 0 0 1 -2.356.975 1 1 0 0 0 -.744.828l-.352 2.464h-2.266l-.351-2.463a1 1 0 0 0 -.744-.828 8.859 8.859 0 0 1 -2.356-.975 1 1 0 0 0 -1.11.06l-1.991 1.492-1.6-1.6 1.492-1.99a1 1 0 0 0 .061-1.111 8.923 8.923 0 0 1 -.977-2.357 1 1 0 0 0 -.827-.742l-2.464-.353v-2.266l2.463-.352a1 1 0 0 0 .827-.742 8.923 8.923 0 0 1 .977-2.357 1 1 0 0 0 -.061-1.111l-1.492-1.99 1.6-1.6 1.991 1.492a1 1 0 0 0 1.11.06 8.859 8.859 0 0 1 2.356-.975 1 1 0 0 0 .744-.828l.352-2.464h2.266l.351 2.463a1 1 0 0 0 .744.828 8.859 8.859 0 0 1 2.356.975 1 1 0 0 0 1.11-.06l1.991-1.492 1.6 1.6-1.492 1.99a1 1 0 0 0 -.061 1.111 8.923 8.923 0 0 1 .977 2.357 1 1 0 0 0 .827.742l2.464.353z"></path>
    <path d="m48 10a6 6 0 1 0 6 6 6.006 6.006 0 0 0 -6-6zm0 10a4 4 0 1 1 4-4 4 4 0 0 1 -4 4z"></path>
    <path d="m52 40h-48v-25a3 3 0 0 1 3-3h28v-2h-28a5.006 5.006 0 0 0 -5 5v30a5.006 5.006 0 0 0 5 5h12.867l-.75 6h-2.117a2 2 0 0 0 -2 2v2a2 2 0 0 0 2 2h22a2 2 0 0 0 2-2v-2a2 2 0 0 0 -2-2h-2.117l-.75-6h12.867a5.006 5.006 0 0 0 5-5v-16h-2zm-13 20h-22v-2h22zm-4.133-4h-13.734l.75-6h12.234zm14.133-8h-42a3 3 0 0 1 -3-3v-3h48v3a3 3 0 0 1 -3 3z"></path>
    <path d="m46 44h2v2h-2z"></path>
  </symbol>
  <symbol xmlns="http://www.w3.org/2000/svg" viewBox="0 0 512 512" id="easy">
    <path d="m184 304h-112a8.00008 8.00008 0 0 0 -8 8v96a8.00008 8.00008 0 0 0 8 8h112a8.00008 8.00008 0 0 0 8-8v-96a8.00008 8.00008 0 0 0 -8-8zm-8 96h-96v-80h96z"></path>
    <path d="m96 336h32v16h-32z"></path>
    <path d="m128 368h32v16h-32z"></path>
    <path d="m380 64h-244v-40a7.99985 7.99985 0 0 0 -12.87793-6.34082l-104 80a8 8 0 0 0 0 12.68164l104 80a7.99985 7.99985 0 0 0 12.87793-6.34082v-40h216a64.07239 64.07239 0 0 1 64 64v144a63.89737 63.89737 0 0 1 -48 61.99341v-181.99341a8.00008 8.00008 0 0 0 -8-8h-336a8.00008 8.00008 0 0 0 -8 8v256a8.00008 8.00008 0 0 0 8 8h356a116.13134 116.13134 0 0 0 116-116v-200a116.13134 116.13134 0 0 0 -116-116zm-28 176v192h-112v-192zm-208 0v32h-32v-32zm-112 0h64v40a8.00008 8.00008 0 0 0 8 8h48a8.00008 8.00008 0 0 0 8-8v-40h64v192h-192zm448 140a100.113 100.113 0 0 1 -100 100h-348v-32h328a8.00008 8.00008 0 0 0 8-8v-9.605a79.86446 79.86446 0 0 0 64-78.395v-144a80.09041 80.09041 0 0 0 -80-80h-224a8.00008 8.00008 0 0 0 -8 8v31.75293l-82.87891-63.75293 82.87891-63.75293v31.75293a8.00008 8.00008 0 0 0 8 8h252a100.113 100.113 0 0 1 100 100z"></path>
    <path d="m320 400h16v16h-16z"></path>
    <path d="m288 400h16v16h-16z"></path>
    <path d="m256 400h16v16h-16z"></path>
  </symbol>
  <symbol enable-background="new 0 0 512 512" xmlns="http://www.w3.org/2000/svg" viewBox="0 0 512 512" id="growth">
    <path d="m504.5 480.837h-38.97v-240.347c0-4.142-3.357-7.5-7.5-7.5s-7.5 3.358-7.5 7.5v240.347h-49.648l-.002-318.357h49.65v43.01c0 4.142 3.357 7.5 7.5 7.5s7.5-3.358 7.5-7.5v-50.51c0-4.142-3.357-7.5-7.5-7.5h-64.65c-4.143 0-7.5 3.358-7.5 7.5v43.012h-57.148c-4.143 0-7.5 3.358-7.5 7.5v43.008h-57.15c-4.143 0-7.5 3.358-7.5 7.5v43.008h-57.15c-4.143 0-7.5 3.358-7.5 7.5v43.008h-57.15c-4.143 0-7.5 3.358-7.5 7.5v38.964h-57.152c-4.143 0-7.5 3.358-7.5 7.5v20.89c0 4.142 3.357 7.5 7.5 7.5s7.5-3.358 7.5-7.5v-13.39h49.65v69.857h-49.65v-21.467c0-4.142-3.357-7.5-7.5-7.5s-7.5 3.358-7.5 7.5v21.467h-31.467v-473.337c0-4.142-3.357-7.5-7.5-7.5s-7.5 3.358-7.5 7.5v38.967h-8.663c-4.143 0-7.5 3.358-7.5 7.5s3.357 7.5 7.5 7.5h8.663v49.65h-8.663c-4.143 0-7.5 3.358-7.5 7.5s3.357 7.5 7.5 7.5h8.663v49.65h-8.663c-4.143 0-7.5 3.358-7.5 7.5s3.357 7.5 7.5 7.5h8.663v49.65h-8.663c-4.143 0-7.5 3.358-7.5 7.5s3.357 7.5 7.5 7.5h8.663v49.651h-8.663c-4.143 0-7.5 3.358-7.5 7.5s3.357 7.5 7.5 7.5h8.663v49.65h-8.663c-4.143 0-7.5 3.358-7.5 7.5s3.357 7.5 7.5 7.5h8.663v49.65h-8.663c-4.143 0-7.5 3.358-7.5 7.5s3.357 7.5 7.5 7.5h8.663v38.967c0 4.142 3.357 7.5 7.5 7.5h38.967v8.663c0 4.142 3.357 7.5 7.5 7.5s7.5-3.358 7.5-7.5v-8.66h49.65v8.66c0 4.142 3.357 7.5 7.5 7.5s7.5-3.358 7.5-7.5v-8.663h49.65v8.663c0 4.142 3.357 7.5 7.5 7.5s7.5-3.358 7.5-7.5v-8.663h49.65v8.663c0 4.142 3.357 7.5 7.5 7.5s7.5-3.358 7.5-7.5v-8.663h49.65v8.663c0 4.142 3.357 7.5 7.5 7.5s7.5-3.358 7.5-7.5v-8.663h49.65v8.663c0 4.142 3.357 7.5 7.5 7.5s7.5-3.358 7.5-7.5v-8.66h49.65v8.66c0 4.142 3.357 7.5 7.5 7.5s7.5-3.358 7.5-7.5v-8.663h38.97c4.143 0 7.5-3.358 7.5-7.5s-3.357-7.498-7.5-7.498zm-362.22-116.321h49.65v116.321h-49.65zm64.651-50.508h49.65v166.829h-49.65zm64.65-50.508h49.65v217.337h-49.65zm64.65-50.508h49.648v267.846h-49.648z"></path>
    <path d="m86.1 338.44c6.323 0 12.267-2.46 16.734-6.927l112.91-112.91c2.929-2.929 2.929-7.678 0-10.606-2.93-2.929-7.678-2.929-10.607 0l-112.909 112.909c-1.635 1.634-3.811 2.534-6.128 2.534-2.311 0-4.482-.9-6.116-2.533-1.64-1.64-2.543-3.817-2.543-6.13 0-2.311.901-4.484 2.543-6.123l263.521-263.52c2.145-2.145 2.786-5.371 1.625-8.173-1.16-2.803-3.896-4.63-6.929-4.63h-23.61c-4.775 0-8.66-3.889-8.66-8.67 0-4.775 3.885-8.66 8.66-8.66h62.63c4.775 0 8.66 3.885 8.66 8.66v62.63c0 4.781-3.885 8.67-8.66 8.67s-8.66-3.889-8.66-8.67v-23.611c0-3.034-1.827-5.768-4.63-6.929-2.804-1.161-6.027-.518-8.174 1.626l-125.88 125.88c-2.929 2.929-2.929 7.678 0 10.606 2.93 2.929 7.678 2.929 10.607 0l113.076-113.076v5.503c0 13.052 10.614 23.67 23.66 23.67s23.66-10.618 23.66-23.67v-62.63c0-13.046-10.614-23.66-23.66-23.66h-62.63c-13.046 0-23.66 10.614-23.66 23.66 0 13.052 10.614 23.67 23.66 23.67h5.504l-250.714 250.713c-4.475 4.469-6.939 10.412-6.939 16.733 0 6.32 2.463 12.264 6.937 16.737 4.466 4.467 10.405 6.927 16.722 6.927z"></path>
  </symbol>
  <symbol xmlns="http://www.w3.org/2000/svg" viewBox="0 0 50 2" id="line">
    <path d="m0 0h50v2h-50z" fill="#63c3ef"></path>
  </symbol>
  <symbol xmlns="http://www.w3.org/2000/svg" viewBox="0 0 208.69 255.9" id="mafia-icon">
    <defs></defs>
    <title>Zasób 2</title>
    <g id="Warstwa_2">
      <g id="Warstwa_1-2">
        <path d="M17.29,109.1c-3.07-1.27-6-2.39-8.88-3.68a13.74,13.74,0,1,1,10.72-25.3C22.06,81.27,25,82.43,28,83.5c2.8,1,2.81.94,3.37-2A288.79,288.79,0,0,1,43.35,36c3.43-9.4,7.41-18.53,13.84-26.34,3.53-4.3,7.6-8.06,13.28-9.14,9.08-1.74,17,1,23.54,7.3,2.51,2.42,4.62,5.24,6.93,7.86,2.92,3.3,4,3.29,6.88-.08,1.81-2.07,3.47-4.27,5.34-6.28C120,2,128.34-1.34,138.33.54c5.57,1.05,9.59,4.79,13.08,9,6.76,8.2,10.85,17.83,14.39,27.71a296.39,296.39,0,0,1,11.55,44,11.62,11.62,0,0,1,.37,1.71c0,1.3.49,1.5,1.69,1,3.3-1.34,6.67-2.51,10-3.83,8.82-3.52,17.78,1.6,19.17,11a13.72,13.72,0,0,1-8.09,14.15c-2.94,1.34-6,2.48-9.1,3.77a22.54,22.54,0,0,1,7.1,13.66,21.55,21.55,0,0,1-15.65,23.6,3.52,3.52,0,0,0-3,3c-5.16,21-14.23,40-28.06,56.65-1.07,1.29-.84,1.92.15,3a60.72,60.72,0,0,1,15.42,31,13.51,13.51,0,0,1-13.47,15.82c-4.92.07-9.83,0-14.75,0q-41.83,0-83.69,0c-7.92,0-13.84-5.33-14.37-13-.21-3,.74-5.92,1.57-8.79a61.84,61.84,0,0,1,14.17-25.18c1.11-1.2,1-1.82,0-3-13.71-16.52-22.72-35.41-27.91-56.16a4.08,4.08,0,0,0-3.36-3.47C10.56,142,5,123.36,15.14,111.49,15.79,110.73,16.47,110,17.29,109.1Zm41.92,36.62.65.15a125.27,125.27,0,0,0,20,4,182.62,182.62,0,0,0,52.77-.55,142.64,142.64,0,0,0,37.69-11,2.71,2.71,0,0,0,1.95-2.27,79.94,79.94,0,0,0,.22-19.43c-.21-1.79-.75-1.86-2.32-1.48a284.61,284.61,0,0,1-69.31,7.5,321,321,0,0,1-44-3.68c-6.34-1.29-12.75-2.29-19-4-1.3-.35-1.48.21-1.63,1.32a74,74,0,0,0,.18,19.89,2.35,2.35,0,0,0,1.57,2,119.39,119.39,0,0,0,21.08,7.43Zm36.65-30.81c4.15.19,8.29.3,12.45.25a273.69,273.69,0,0,0,55.92-6.24c11.29-2.49,22.42-5.58,33-10.39,3.53-1.61,4.79-5,3.35-8.25s-4.88-4.52-8.38-3.08c-24.46,10.06-50.12,14.11-76.36,15.28-6.48.29-13,.43-19.45.24A314.37,314.37,0,0,1,64.85,100c-16.33-2.42-32.33-6.08-47.64-12.44a7.48,7.48,0,0,0-4.07-.93,6.26,6.26,0,0,0-5.51,5.33,6,6,0,0,0,3.58,6.5A122,122,0,0,0,29,104.92a237.52,237.52,0,0,0,42,8.41C79.23,114.27,87.51,115.19,95.86,114.91Zm44.4,92.47a12,12,0,0,0,.93-.81c15.92-16.95,25.85-37.08,31.55-59.44.11-.42.39-1-.28-1.35-.42.15-.89.31-1.35.5-19.78,8.36-40.5,12.12-61.89,12.69a196.21,196.21,0,0,1-45.6-4.24c-9.39-2.38-18.68-5.08-27.54-9.11a3.7,3.7,0,0,0,.18,2.66,137.76,137.76,0,0,0,13.21,33.5c11.13,20.05,26.44,35.91,47,46.47,4.54,2.34,9.29,2.95,13.94.8A96.28,96.28,0,0,0,140.26,207.38Zm-4.91-114a228.41,228.41,0,0,0,32.81-5.92c2-.48,2.54-1.29,2.15-3.25-3.25-16.39-7-32.65-13.07-48.27-3.13-8.09-6.69-16-12.48-22.6-3.94-4.5-8.63-6.78-14.83-5.43a22.26,22.26,0,0,0-12.58,8c-1.86,2.23-3.69,4.52-5.75,6.56-4.46,4.43-9.87,4.43-14.39.13a47.11,47.11,0,0,1-3.37-3.68c-2.38-2.78-4.5-5.84-7.64-7.83C78.52,6.2,70.64,5.68,64.19,13a48.66,48.66,0,0,0-8.48,13.44A54.57,54.57,0,0,0,51.8,35C45.58,50.84,41.76,67.33,38.42,84c-.4,2,.13,2.91,2.21,3.44A236.71,236.71,0,0,0,90,94.82C105.15,95.45,120.3,95.47,135.35,93.35Zm-68.1,124c0,10.09,0,19.66,0,29.23,0,1.43.48,1.87,1.88,1.86,6.16-.05,12.33-.07,18.49,0,1.65,0,1.91-.71,1.88-2.11-.06-3.83-.07-7.66,0-11.49a2.73,2.73,0,0,0-1.66-2.73A88.43,88.43,0,0,1,77,225C73.85,222.54,70.75,220.07,67.25,217.31Zm74.21-.27A119.91,119.91,0,0,1,120,232.6a1.71,1.71,0,0,0-.8,1.7c0,4.16,0,8.32,0,12.48,0,1.17.4,1.62,1.59,1.61,6.4,0,12.81,0,19.21,0,1.07,0,1.47-.41,1.47-1.47C141.45,237.19,141.46,227.47,141.46,217Zm7.6,1v25.61c0,5.24,0,5.24,5.3,4.73,3.54-.34,6.29-3.43,5.69-6.86A48.16,48.16,0,0,0,149.06,218ZM17.49,125a14.58,14.58,0,0,0,9.65,14c1.72.58,2.25.34,1.94-1.6a78.13,78.13,0,0,1-.27-22.13c.11-.86.85-2-.41-2.68a3.3,3.3,0,0,0-3.3.29A14.36,14.36,0,0,0,17.49,125Zm173.71.45c0-5.32-3.49-10.78-8.12-12.81-2.35-1-3.57-.24-3.26,2.21a79.24,79.24,0,0,1-.27,22.86c-.28,1.72.39,1.79,1.81,1.35A14.44,14.44,0,0,0,191.2,125.44ZM59.6,218.08a48.22,48.22,0,0,0-10.94,23.31,6.07,6.07,0,0,0,5.58,7c1.15.11,2.34-.07,3.49.06,1.6.2,1.91-.48,1.9-2-.07-7.16,0-14.31,0-21.47ZM104,248.39c2.22,0,4.13-.06,6,0,1.18.05,1.6-.33,1.57-1.54-.08-2.82-.08-5.65,0-8.47,0-1.39-.37-1.7-1.74-1.34a21.26,21.26,0,0,1-8.88.45c-3.92-.65-3.94-.58-3.92,3.58,0,2.32-.78,5.37.38,6.76C98.82,249.46,102,248.11,104,248.39Z"></path>
        <path d="M55.71,26.41A48.66,48.66,0,0,1,64.19,13c6.45-7.29,14.33-6.77,22-1.92,3.14,2,5.26,5.05,7.64,7.83a47.11,47.11,0,0,0,3.37,3.68c4.52,4.3,9.93,4.3,14.39-.13,2.06-2,3.89-4.33,5.75-6.56a22.26,22.26,0,0,1,12.58-8c6.2-1.35,10.89.93,14.83,5.43,5.79,6.62,9.35,14.51,12.48,22.6,6.06,15.62,9.82,31.88,13.07,48.27.39,2-.2,2.77-2.15,3.25a228.41,228.41,0,0,1-32.81,5.92c-.32-1.28-1.53-1.14-2.4-1.42a179.88,179.88,0,0,1-23.69-9.07C94,75.46,79.71,66.71,68.65,53.5c-5.21-6.23-9.46-12.94-11.41-21C56.75,30.49,57,28.26,55.71,26.41Z"></path>
        <path d="M140.26,207.38a96.28,96.28,0,0,1-29.87,21.67c-4.65,2.15-9.4,1.54-13.94-.8-20.54-10.56-35.85-26.42-47-46.47a137.76,137.76,0,0,1-13.21-33.5,3.7,3.7,0,0,1-.18-2.66c8.86,4,18.15,6.73,27.54,9.11a.81.81,0,0,0-.35,1.05c2.14,8.18,7.21,13.51,15.44,15.59,9.86,2.48,20,2.93,30.05,3,9,.08,18,0,27,0a22,22,0,0,1,8,1.55c1.8.72,2.05,2,.8,3.5a9,9,0,0,1-4.22,2.52c-9.65,3.2-19.79,3.63-29.7,5.4-4.8.85-9.69,1.32-14.21,3.27-3.32,1.43-3.46,3.53-.4,5.5a47.32,47.32,0,0,0,6.16,3.21C114.29,204.83,127.05,207.13,140.26,207.38Z"></path>
        <path d="M140.26,207.38c-13.21-.25-26-2.55-38.1-8A47.32,47.32,0,0,1,96,196.16c-3.06-2-2.92-4.07.4-5.5,4.52-1.95,9.41-2.42,14.21-3.27,9.91-1.77,20-2.2,29.7-5.4a9,9,0,0,0,4.22-2.52c1.25-1.47,1-2.78-.8-3.5a22,22,0,0,0-8-1.55c-9,0-18,.05-27,0-10.1-.09-20.19-.54-30.05-3-8.23-2.08-13.3-7.41-15.44-15.59a.81.81,0,0,1,.35-1.05,196.21,196.21,0,0,0,45.6,4.24c21.39-.57,42.11-4.33,61.89-12.69.46-.19.93-.35,1.35-.5.67.39.39.93.28,1.35-5.7,22.36-15.63,42.49-31.55,59.44A12,12,0,0,1,140.26,207.38Z"></path>
        <path d="M56.88,119a321,321,0,0,0,44,3.68,284.61,284.61,0,0,0,69.31-7.5c1.57-.38,2.11-.31,2.32,1.48a79.94,79.94,0,0,1-.22,19.43,2.71,2.71,0,0,1-1.95,2.27,142.64,142.64,0,0,1-37.69,11,182.62,182.62,0,0,1-52.77.55,125.27,125.27,0,0,1-20-4,.43.43,0,0,0-.65-.15l-.13,0a2.74,2.74,0,0,0,.14-1.93C56.84,135.66,56.69,127.37,56.88,119Zm20,16.89a12.09,12.09,0,0,0,1.47.35,3.73,3.73,0,0,0,4.35-2.85,3.47,3.47,0,0,0-2.45-4.34c-4.13-1.25-8.32-2.33-12.53-3.32a3.35,3.35,0,0,0-4.23,2.56c-.59,2,.15,4.13,2.16,4.39,4,.52,4.07,2.95,3.75,5.91a8.37,8.37,0,0,0,0,2A3.62,3.62,0,0,0,73.33,144a3.47,3.47,0,0,0,3.5-3.52C77,139.07,76.86,137.65,76.86,135.93Zm55,.09v2.11c0,.75,0,1.5,0,2.25A3.63,3.63,0,0,0,135.5,144a3.67,3.67,0,0,0,3.79-3.52,9.46,9.46,0,0,0,0-2c-.29-2.88-.27-5.27,3.66-5.73,2-.23,2.81-2.32,2.28-4.34a3.34,3.34,0,0,0-4.17-2.66c-4.29,1-8.56,2.1-12.76,3.4a3.34,3.34,0,0,0-2.32,4.18,3.61,3.61,0,0,0,4,3A15,15,0,0,0,131.82,136Z"></path>
        <path d="M55.71,26.41c1.24,1.85,1,4.08,1.53,6.12,1.95,8,6.2,14.74,11.41,21,11.06,13.21,25.37,22,40.61,29.36A179.88,179.88,0,0,0,133,91.93c.87.28,2.08.14,2.4,1.42-15,2.12-30.2,2.1-45.32,1.47a236.71,236.71,0,0,1-49.4-7.43C38.55,86.86,38,86,38.42,84,41.76,67.33,45.58,50.84,51.8,35A54.57,54.57,0,0,1,55.71,26.41Z"></path>
        <path d="M96.38,102.72c6.49.19,13,0,19.45-.24,26.24-1.17,51.9-5.22,76.36-15.28,3.5-1.44,7-.11,8.38,3.08s.18,6.64-3.35,8.25c-10.57,4.81-21.7,7.9-33,10.39a273.69,273.69,0,0,1-55.92,6.24c-4.16,0-8.3-.06-12.45-.25C94,110.76,93.5,106.67,96.38,102.72Z"></path>
        <path d="M96.38,102.72c-2.88,4-2.41,8-.52,12.19-8.35.28-16.63-.64-24.88-1.58a237.52,237.52,0,0,1-42-8.41,122,122,0,0,1-17.78-6.51,6,6,0,0,1-3.58-6.5,6.26,6.26,0,0,1,5.51-5.33,7.48,7.48,0,0,1,4.07.93c15.31,6.36,31.31,10,47.64,12.44A314.37,314.37,0,0,0,96.38,102.72Z"></path>
        <path d="M56.88,119c-.19,8.33,0,16.62,2.34,24.71a2.74,2.74,0,0,1-.14,1.93A119.39,119.39,0,0,1,38,138.25a2.35,2.35,0,0,1-1.57-2,74,74,0,0,1-.18-19.89c.15-1.11.33-1.67,1.63-1.32C44.13,116.75,50.54,117.75,56.88,119Z"></path>
        <path d="M67.25,217.31c3.5,2.76,6.6,5.23,9.73,7.66a88.43,88.43,0,0,0,10.85,7.11,2.73,2.73,0,0,1,1.66,2.73c-.08,3.83-.07,7.66,0,11.49,0,1.4-.23,2.13-1.88,2.11-6.16-.08-12.33-.06-18.49,0-1.4,0-1.89-.43-1.88-1.86C67.27,237,67.25,227.4,67.25,217.31Z"></path>
        <path d="M141.46,217c0,10.43,0,20.15,0,29.87,0,1.06-.4,1.48-1.47,1.47-6.4,0-12.81,0-19.21,0-1.19,0-1.61-.44-1.59-1.61,0-4.16,0-8.32,0-12.48a1.71,1.71,0,0,1,.8-1.7A119.91,119.91,0,0,0,141.46,217Z"></path>
        <path d="M149.06,218a48.16,48.16,0,0,1,11,23.48c.6,3.43-2.15,6.52-5.69,6.86-5.3.51-5.3.51-5.3-4.73V218Z"></path>
        <path d="M17.49,125a14.36,14.36,0,0,1,7.61-12.11,3.3,3.3,0,0,1,3.3-.29c1.26.65.52,1.82.41,2.68a78.13,78.13,0,0,0,.27,22.13c.31,1.94-.22,2.18-1.94,1.6A14.58,14.58,0,0,1,17.49,125Z"></path>
        <path d="M191.2,125.44a14.44,14.44,0,0,1-9.84,13.61c-1.42.44-2.09.37-1.81-1.35a79.24,79.24,0,0,0,.27-22.86c-.31-2.45.91-3.24,3.26-2.21C187.71,114.66,191.17,120.12,191.2,125.44Z"></path>
        <path d="M59.6,218.08V225c0,7.16,0,14.31,0,21.47,0,1.47-.3,2.15-1.9,2-1.15-.13-2.34,0-3.49-.06a6.07,6.07,0,0,1-5.58-7A48.22,48.22,0,0,1,59.6,218.08Z"></path>
        <path d="M104,248.39c-2-.28-5.21,1.07-6.55-.54-1.16-1.39-.37-4.44-.38-6.76,0-4.16,0-4.23,3.92-3.58a21.26,21.26,0,0,0,8.88-.45c1.37-.36,1.77-.05,1.74,1.34-.08,2.82-.08,5.65,0,8.47,0,1.21-.39,1.59-1.57,1.54C108.16,248.33,106.25,248.39,104,248.39Z"></path>
        <path d="M59.21,145.72a.43.43,0,0,1,.65.15Z"></path>
        <path d="M76.86,135.93c0,1.72.09,3.14,0,4.54a3.47,3.47,0,0,1-3.5,3.52,3.62,3.62,0,0,1-3.92-3.36,8.37,8.37,0,0,1,0-2c.32-3,.23-5.39-3.75-5.91-2-.26-2.75-2.39-2.16-4.39a3.35,3.35,0,0,1,4.23-2.56c4.21,1,8.4,2.07,12.53,3.32a3.47,3.47,0,0,1,2.45,4.34,3.73,3.73,0,0,1-4.35,2.85A12.09,12.09,0,0,1,76.86,135.93Z"></path>
        <path d="M131.82,136a15,15,0,0,1-1.81.31,3.61,3.61,0,0,1-4-3,3.34,3.34,0,0,1,2.32-4.18c4.2-1.3,8.47-2.41,12.76-3.4a3.34,3.34,0,0,1,4.17,2.66c.53,2-.27,4.11-2.28,4.34-3.93.46-3.95,2.85-3.66,5.73a9.46,9.46,0,0,1,0,2A3.67,3.67,0,0,1,135.5,144a3.63,3.63,0,0,1-3.66-3.62c-.06-.75,0-1.5,0-2.25Z"></path>
      </g>
    </g>
  </symbol>
  <symbol xmlns="http://www.w3.org/2000/svg" viewBox="0 0 233.48 256.04" id="main-icon">
    <g transform="translate(-180.81 -292.41)">
      <path d="m225.1 381.92q3.84-21.59 7.68-43.17c1.89-10.54 3.74-21.1 5.76-31.62 1.74-9.08 8.52-14.61 17.77-14.68 6.57-.06 13.15 0 19.72 0 7.52 0 13 3.42 16.46 10.1 1.82 3.49 3.14 7.24 5.52 10.44v78.44c-24.72-.12-49.01-2.91-72.91-9.51z" fill="#6e685b"></path>
      <path d="m298 391.42v-78.42c1.67-3.42 3.29-6.87 5-10.25 3.49-6.82 9-10.41 16.77-10.31 6.57.08 13.14 0 19.71 0 9.35 0 16.32 6.1 18 15.34q6.36 35.81 12.88 71.59c.11.65.11 1.32.16 2-.85 1.18-2.23.92-3.4 1.24a252.63 252.63 0 0 1 -40.65 7.19c-9.45 1-19 1.12-28.49 1.63z" fill="#615c50"></path>
      <path d="m298 548.27c-2.51.5-4.3-.48-6.14-2.25-18-17.35-33.9-36.38-46.74-57.86-8.65-14.5-15.33-29.83-18.38-46.55a72.45 72.45 0 0 1 -1.28-13.61c0-1.19.32-1.61 1.53-1.6 4.16.05 8.32 0 12.48 0a2.3 2.3 0 0 1 1.6.52c5.55 4.6 12.32 6.32 19.1 8 12.43 3 25.12 3.75 37.84 4.07z" fill="#ef9f8b"></path>
      <path d="m298 548.27v-109.27c10.87-.57 21.77-.87 32.49-3 6.58-1.33 13.1-2.88 19.18-5.85.45-.22 1-.32 1.32-.66 3.41-3.82 7.94-3 12.26-3h2.5c5.18 0 5 0 4.56 5.16-1.76 21.45-10 40.59-21 58.71-12.52 20.61-28 38.86-45.23 55.62-1.7 1.58-3.44 3.02-6.08 2.29z" fill="#ed8d75"></path>
      <path d="m225.1 381.92c23.85 6.6 48.19 9.39 72.88 9.5q0 14.94 0 29.89a269.88 269.88 0 0 1 -32.9-1.6 312.49 312.49 0 0 1 -46.84-8.37 286.05 286.05 0 0 1 -27.62-8.52 14.92 14.92 0 0 1 9.16-28.37c7.83 2.21 15.45 5.14 23.36 7.13.65.16 1.31.23 1.96.34z" fill="#7d766a"></path>
      <path d="m298 421.31q0-14.94 0-29.89c9.5-.51 19-.66 28.49-1.63a252.63 252.63 0 0 0 40.65-7.19c1.17-.32 2.55-.06 3.4-1.24.92.47 1.76 0 2.63-.21 7.55-1.9 14.81-4.76 22.31-6.82a14.79 14.79 0 0 1 17.89 9.25c2.69 7.68-.55 15.83-8 18.83a242.39 242.39 0 0 1 -32.43 9.95 298.09 298.09 0 0 1 -37.36 6.82c-12.5 1.44-25 2.53-37.58 2.13z" fill="#6d675b"></path>
    </g>
  </symbol>
  <symbol enable-background="new 0 0 24 24" xmlns="http://www.w3.org/2000/svg" viewBox="0 0 24 24" id="menu">
    <path d="m21.5 24h-19c-1.379 0-2.5-1.122-2.5-2.5v-19c0-1.378 1.121-2.5 2.5-2.5h19c1.379 0 2.5 1.122 2.5 2.5v19c0 1.378-1.121 2.5-2.5 2.5zm-19-23c-.827 0-1.5.673-1.5 1.5v19c0 .827.673 1.5 1.5 1.5h19c.827 0 1.5-.673 1.5-1.5v-19c0-.827-.673-1.5-1.5-1.5z"></path>
    <path d="m16.5 8h-9c-.276 0-.5-.224-.5-.5s.224-.5.5-.5h9c.276 0 .5.224.5.5s-.224.5-.5.5z"></path>
    <path d="m16.5 12.5h-9c-.276 0-.5-.224-.5-.5s.224-.5.5-.5h9c.276 0 .5.224.5.5s-.224.5-.5.5z"></path>
    <path d="m16.5 17h-9c-.276 0-.5-.224-.5-.5s.224-.5.5-.5h9c.276 0 .5.224.5.5s-.224.5-.5.5z"></path>
  </symbol>
  <symbol enable-background="new 0 0 508.044 508.044" xmlns="http://www.w3.org/2000/svg" viewBox="0 0 508.044 508.044" id="quotes">
    <path d="m.108 352.536c0 66.794 54.144 120.938 120.937 120.938 66.794 0 120.938-54.144 120.938-120.938s-54.144-120.937-120.938-120.937c-13.727 0-26.867 2.393-39.168 6.61 27.216-156.091 148.937-256.752 36.102-173.906-125.117 91.867-118.005 284.537-117.865 288.068 0 .055-.006.104-.006.165z"></path>
    <path d="m266.169 352.536c0 66.794 54.144 120.938 120.938 120.938s120.938-54.144 120.938-120.938-54.145-120.937-120.939-120.937c-13.728 0-26.867 2.393-39.168 6.61 27.216-156.091 148.937-256.752 36.102-173.906-125.117 91.867-118.006 284.537-117.865 288.068 0 .055-.006.104-.006.165z"></path>
  </symbol>
  <symbol xmlns="http://www.w3.org/2000/svg" viewBox="0 0 21.8 23.8" id="search">
    <path d="m11 17.9a8.7 8.7 0 0 0 .8 4.8 1 1 0 0 0 1.2.4.8.8 0 0 0 .4-1.2 8.3 8.3 0 0 1 -.7-3.8 7.6 7.6 0 0 1 15.2 1.1 7.7 7.7 0 0 1 -11.8 5.8.8.8 0 0 0 -1.2.2.9.9 0 0 0 .2 1.3 10 10 0 0 0 4.5 1.5 9.3 9.3 0 0 0 6.1-1.7l5.5 6.4a.9.9 0 0 0 .6.3.7.7 0 0 0 .7-.2.9.9 0 0 0 .1-1.2l-5.6-6.4a8.9 8.9 0 0 0 2.6-5.8 9.3 9.3 0 1 0 -18.6-1.5z" fill="#ecf6fc" transform="translate(-10.9 -9.3)"></path>
  </symbol>
  <symbol version="1.1" id="settings" xmlns="http://www.w3.org/2000/svg" xmlns:xlink="http://www.w3.org/1999/xlink" x="0px" y="0px" xml:space="preserve" viewBox="0 0 485.656 485.656">
    <g>
      <g>
        <path d="M334.512,312h-200c-2.122,0-4.156,0.844-5.656,2.344l-96,96l11.312,11.312L137.824,328h187.888
			c-1.664,9.496-6.888,24-23.2,24h-88v16h88c31.64,0,40-31.4,40-48C342.512,315.582,338.93,312,334.512,312z"></path>
      </g>
    </g>
    <g>
      <g>
        <path d="M436.168,258.344c-3.124-3.123-8.188-3.123-11.312,0l-72,72l11.312,11.312l65.712-65.712
			c10.828,14.37,8.629,34.68-5.024,46.4L331.2,416H166.512c-2.122,0-4.156,0.844-5.656,2.344l-56,56l11.312,11.312L169.824,432
			h164.688c2.122,0,4.156-0.844,5.656-2.344l96-96C465.96,303.864,449.192,271.368,436.168,258.344z"></path>
      </g>
    </g>
    <g>
      <g>
        <path d="M390.512,112H361.76c-2.193-7.348-5.139-14.45-8.792-21.192l20.344-20.344c3.123-3.124,3.123-8.188,0-11.312
			L339.36,25.208c-3.124-3.123-8.188-3.123-11.312,0l-20.344,20.344c-6.741-3.658-13.843-6.607-21.192-8.8V8c0-4.418-3.582-8-8-8
			h-48c-4.418,0-8,3.582-8,8v28.752c-7.349,2.193-14.451,5.142-21.192,8.8l-20.344-20.344c-3.124-3.123-8.188-3.123-11.312,0
			l-33.952,33.944c-3.123,3.124-3.123,8.188,0,11.312l20.352,20.344c-3.655,6.742-6.604,13.844-8.8,21.192h-28.752
			c-4.418,0-8,3.582-8,8v48c0,4.418,3.582,8,8,8h28.752c2.193,7.348,5.139,14.45,8.792,21.192l-20.344,20.344
			c-3.123,3.124-3.123,8.188,0,11.312l33.952,33.952c3.174,3.001,8.138,3.001,11.312,0l20.344-20.352
			c6.742,3.655,13.844,6.604,21.192,8.8V280c0,4.418,3.582,8,8,8h48c4.418,0,8-3.582,8-8v-28.752
			c7.348-2.194,14.449-5.14,21.192-8.792l20.344,20.344c1.5,1.5,3.534,2.344,5.656,2.344s4.156-0.844,5.656-2.344l33.944-33.952
			c3.123-3.124,3.123-8.188,0-11.312l-20.344-20.344c3.655-6.742,6.604-13.844,8.8-21.192h28.752c4.418,0,8-3.582,8-8v-48
			C398.512,115.582,394.93,112,390.512,112z M382.513,160h-26.888c-3.709,0.001-6.931,2.551-7.784,6.16
			c-2.366,9.945-6.309,19.447-11.68,28.144c-1.95,3.157-1.473,7.241,1.152,9.864l19.032,19.024l-22.64,22.64l-19.024-19.04
			c-2.623-2.625-6.707-3.102-9.864-1.152c-8.695,5.378-18.197,9.325-28.144,11.688c-3.609,0.853-6.159,4.075-6.16,7.784V272h-32
			v-26.88c-0.001-3.709-2.551-6.931-6.16-7.784c-9.947-2.363-19.449-6.31-28.144-11.688c-3.157-1.95-7.241-1.473-9.864,1.152
			l-19.024,19.04l-22.64-22.64l19.032-19.04c2.625-2.623,3.102-6.707,1.152-9.864c-5.371-8.698-9.314-18.199-11.68-28.144
			c-0.853-3.609-4.075-6.159-7.784-6.16h-26.888v-32H153.4c3.709-0.001,6.931-2.551,7.784-6.16
			c2.366-9.945,6.309-19.446,11.68-28.144c1.95-3.157,1.473-7.241-1.152-9.864L152.68,64.8l22.632-22.624l19.032,19.032
			c2.623,2.625,6.707,3.102,9.864,1.152c8.693-5.379,18.196-9.323,28.144-11.68c3.609-0.853,6.159-4.075,6.16-7.784V16h32v26.896
			c0.002,3.711,2.555,6.934,6.168,7.784c9.948,2.357,19.451,6.301,28.144,11.68c3.157,1.95,7.241,1.473,9.864-1.152l19.024-19.032
			L356.345,64.8l-19.032,19.032c-2.625,2.623-3.102,6.707-1.152,9.864c5.371,8.698,9.314,18.199,11.68,28.144
			c0.853,3.609,4.075,6.159,7.784,6.16h26.888V160z"></path>
      </g>
    </g>
    <g>
      <g>
        <path d="M254.512,96c-26.51,0-48,21.49-48,48s21.491,48,48,48c26.499-0.026,47.974-21.501,48-48
			C302.512,117.49,281.022,96,254.512,96z M254.512,176c-17.673,0-32-14.327-32-32c0-17.673,14.327-32,32-32
			c17.673,0,32,14.327,32,32C286.512,161.673,272.185,176,254.512,176z"></path>
      </g>
    </g>
    <g></g>
    <g></g>
    <g></g>
    <g></g>
    <g></g>
    <g></g>
    <g></g>
    <g></g>
    <g></g>
    <g></g>
    <g></g>
    <g></g>
    <g></g>
    <g></g>
    <g></g>
  </symbol>
  <symbol id="snap" xmlns="http://www.w3.org/2000/svg" viewBox="0 0 512 512">
    <g fill="rgb(0,0,0)">
      <path d="m460.646 10h-416.708c-18.714 0-33.938 15.521-33.938 34.6v420.122c0 19.078 15.224 34.6 33.89 34.6 3.139.025 315.346 2.492 438.5 2.679h.03a19.282 19.282 0 0 0 13.827-5.813 19.917 19.917 0 0 0 5.753-14.418l-7.421-437.793c-.33-18.735-15.553-33.977-33.933-33.977zm-416.708 12h416.708c11.879 0 21.719 9.954 21.935 22.184l6.511 384.244-96.777-99.462a33.563 33.563 0 0 0 -54.35-3.721l-45.03 53.805a21.4 21.4 0 0 1 -18.452 7.764 21.636 21.636 0 0 1 -17.013-10.959l-81.253-140.576a33.583 33.583 0 0 0 -56.1-3.578l-98.117 113.313v-300.414c0-12.462 9.841-22.6 21.938-22.6zm443.767 465.764a7.377 7.377 0 0 1 -5.282 2.236h-.011c-123.12-.187-435.288-2.654-438.474-2.679-12.1 0-21.938-10.138-21.938-22.6v-101.375l107.321-123.946.271-.337a21.585 21.585 0 0 1 36.236 2.221l81.252 140.576a33.576 33.576 0 0 0 55.057 4.892l45.03-53.805a21.57 21.57 0 0 1 35.25 2.83l.356.591 106.615 109.572.612 36.028a8.007 8.007 0 0 1 -2.295 5.796z"></path>
      <path d="m284.988 218.5c29.7 0 53.864-24.671 53.864-54.995s-24.164-54.995-53.864-54.995-53.863 24.671-53.863 54.995 24.163 54.995 53.863 54.995zm0-97.99c23.084 0 41.864 19.287 41.864 42.995s-18.78 43-41.864 43-41.863-19.288-41.863-42.995 18.775-42.996 41.863-42.996z"></path>
    </g>
  </symbol>
  <symbol xmlns="http://www.w3.org/2000/svg" viewBox="0 0 16 11" id="tick">
    <defs></defs>
    <path id="Shape_10_copy_5" d="M2,4L6,8l8-8"></path>
  </symbol>
  <symbol version="1.1" id="wordpress" xmlns="http://www.w3.org/2000/svg" xmlns:xlink="http://www.w3.org/1999/xlink" x="0px" y="0px" xml:space="preserve" viewBox="0 0 512 512">
    <g>
      <g>
        <g>
          <path d="M41.073,152.466c-1.425-3.903-5.074-6.551-9.226-6.696c-4.175-0.132-7.977,2.245-9.669,6.039
				C7.468,184.791,0.009,219.844,0.009,255.99c0,48.964,13.875,96.559,40.124,137.639c25.548,39.983,61.564,72.053,104.158,92.743
				c1.418,0.69,2.941,1.025,4.454,1.025c2.474,0,4.921-0.9,6.836-2.629c3.085-2.785,4.172-7.164,2.747-11.068L41.073,152.466z
				 M20.408,255.99c0-24.264,3.652-47.994,10.883-70.837l98.5,269.854C61.706,412.039,20.408,337.973,20.408,255.99z"></path>
          <path d="M345.376,480.765l-75.473-206.771c-1.471-4.028-5.3-6.702-9.58-6.702c-0.032,0-0.064,0-0.096,0
				c-4.318,0.041-8.143,2.796-9.55,6.88l-73.753,214.293c-0.907,2.633-0.697,5.523,0.581,7.998c1.278,2.475,3.513,4.319,6.185,5.106
				C207.225,508.492,231.555,512,256.001,512c29.053,0,57.656-4.883,85.015-14.514c2.907-1.024,5.195-3.307,6.226-6.212
				c1.031-2.905,0.692-6.121-0.922-8.747C345.897,481.836,345.594,481.272,345.376,480.765z M256.001,491.602
				c-18.944,0-37.814-2.291-56.238-6.818l60.841-176.773l63.36,173.59C301.937,488.241,279.126,491.602,256.001,491.602z"></path>
          <path d="M373.292,403.888c4.314,0,8.167-2.717,9.612-6.788l27.138-76.438c13.018-33.396,19.346-60.555,19.346-83.022
				c0-33.87-10.023-51.413-18.869-66.891c-0.054-0.094-0.109-0.189-0.167-0.283c-0.982-1.597-1.959-3.175-2.926-4.737
				c-10.569-17.065-19.698-31.803-19.698-47.571c0-16.074,11.879-33.424,31.069-33.424c0.317,0,0.804,0.041,1.321,0.085
				c0.404,0.034,0.805,0.067,1.209,0.093c4.329,0.281,8.341-2.2,10.038-6.179c1.696-3.979,0.699-8.597-2.492-11.52
				C381.573,23.87,320.18,0,256.001,0C169.666,0,89.708,43.127,42.115,115.365c-2.031,3.083-2.238,7.022-0.541,10.3
				c1.696,3.277,5.032,5.383,8.72,5.505c6.281,0.208,11.719,0.314,16.16,0.314c23.686,0,58.376-2.55,65.182-3.068
				c1.089,1.962,1.193,6.64,0.137,8.39c-2.685,0.3-14.319,1.553-26.893,2.209c-3.185,0.166-6.108,1.811-7.902,4.449
				c-1.794,2.636-2.251,5.961-1.235,8.984l80.48,239.565c1.395,4.153,5.286,6.951,9.668,6.951c0.004,0,0.008,0,0.011,0
				c4.386-0.005,8.278-2.813,9.665-6.973l53.793-161.323c0.738-2.214,0.696-4.613-0.122-6.8l-29.269-78.243
				c-1.416-3.782-4.928-6.373-8.959-6.608c-11.584-0.675-22.772-1.988-24.791-2.231c-0.919-1.946-0.707-6.437,0.377-8.368
				c7.002,0.524,42.099,3.064,64.336,3.064c23.69,0,58.382-2.55,65.184-3.068c1.09,1.961,1.196,6.641,0.139,8.389
				c-2.677,0.3-14.328,1.554-26.896,2.211c-3.193,0.166-6.123,1.821-7.916,4.469c-1.792,2.648-2.239,5.983-1.207,9.009
				l83.404,244.49c1.401,4.108,5.25,6.879,9.59,6.906C373.25,403.888,373.27,403.888,373.292,403.888z M303.83,158.48
				c8.698-0.708,14.988-1.437,15.375-1.483c11.726-1.386,19.321-12.743,18.061-27.005c-1.206-13.633-10.034-22.696-21.423-22.014
				c-0.065,0.004-0.133,0.008-0.198,0.013c-0.395,0.031-39.714,3.092-64.716,3.092c-23.477,0-63.551-3.063-63.953-3.093
				c-0.061-0.005-0.122-0.009-0.184-0.012c-11.588-0.695-20.652,9.083-21.489,23.228c-0.836,14.126,6.861,24.914,18.351,25.817
				c1.624,0.197,9.756,1.164,19.509,1.907l25.701,68.706l-43.012,128.993l-66.564-198.143c8.736-0.709,15.053-1.442,15.444-1.488
				c11.724-1.386,19.316-12.747,18.055-27.012c-1.207-13.629-10.032-22.697-21.419-22.007c-0.065,0.004-0.133,0.008-0.198,0.013
				c-0.374,0.031-35.884,2.795-60.879,3.071c44.547-57.103,112.646-90.666,185.71-90.666c51.924,0,101.868,16.978,142.757,48.187
				c-18.452,8.187-31.428,27.326-31.428,49.574c0,21.573,11.053,39.419,22.755,58.312c0.927,1.497,1.864,3.01,2.806,4.541
				c8.29,14.509,16.097,28.269,16.097,56.629c0,19.642-6.058,45.128-18.008,75.755c-0.038,0.098-0.074,0.196-0.109,0.295
				l-17.388,48.972L303.83,158.48z"></path>
          <path d="M480.631,133.175c-2.361-4.308-7.461-6.319-12.133-4.786c-4.669,1.538-7.577,6.188-6.917,11.059
				c1.038,7.665,1.566,15.707,1.566,23.901c0,26.824-5.711,53.594-17.971,84.247c-0.06,0.15-0.116,0.302-0.169,0.454l-75.07,217.056
				c-1.393,4.031-0.132,8.504,3.164,11.213c1.868,1.534,4.166,2.319,6.479,2.319c1.765,0,3.539-0.458,5.132-1.388
				c38.017-22.163,69.889-53.921,92.171-91.842c22.969-39.088,35.109-83.839,35.109-129.417
				C511.991,213.087,501.147,170.617,480.631,133.175z M399.158,443.029l65.051-188.086c9.331-23.375,15.137-44.781,17.736-65.726
				c6.365,21.591,9.65,44.116,9.65,66.774C491.595,329.489,456.798,398.762,399.158,443.029z"></path>
        </g>
      </g>
    </g>
    <g>
      <g>
        <path d="M262.286,369.734c-5.342-1.782-11.119,1.108-12.901,6.451l-1.36,4.079c-1.781,5.343,1.108,11.119,6.451,12.901
			c1.07,0.357,2.157,0.526,3.226,0.526c4.27,0,8.25-2.703,9.675-6.977l1.36-4.079C270.518,377.292,267.629,371.516,262.286,369.734z
			"></path>
      </g>
    </g>
    <g>
      <g>
        <path d="M249.707,407.472c-5.344-1.786-11.119,1.108-12.901,6.45l-16.999,50.996c-1.781,5.343,1.108,11.119,6.451,12.9
			c1.07,0.358,2.157,0.527,3.226,0.527c4.27,0,8.25-2.703,9.675-6.977l16.998-50.996
			C257.939,415.029,255.05,409.253,249.707,407.472z"></path>
      </g>
    </g>
    <g></g>
    <g></g>
    <g></g>
    <g></g>
    <g></g>
    <g></g>
    <g></g>
    <g></g>
    <g></g>
    <g></g>
    <g></g>
    <g></g>
    <g></g>
    <g></g>
    <g></g>
  </symbol>
</svg>